<svg width="175" height="40" viewBox="0 0 175 40" fill="none" xmlns="http://www.w3.org/2000/svg">
<g clip-path="url(#clip0_271_102)">
<path d="M6.78061 39.9481H1.14169C0.238567 39.9481 -0.306292 38.9593 0.178857 38.2037L23.8541 1.3963C24.4139 0.525926 25.3805 0 26.4217 0H31.2694C32.1651 0 32.7099 0.974074 32.2397 1.72963L9.37429 38.5148C8.81823 39.4074 7.84047 39.9519 6.78434 39.9519L6.78061 39.9481Z" fill="white"/>
<path d="M23.3654 39.9481H17.7264C16.8233 39.9481 16.2785 38.9593 16.7636 38.2037L40.4389 1.3963C40.9986 0.525926 41.9652 0 43.0064 0H47.8542C48.7498 0 49.2947 0.974074 48.8245 1.72963L25.9553 38.5148C25.3993 39.4074 24.4215 39.9519 23.3654 39.9519V39.9481Z" fill="white"/>
<path d="M24.2909 0C14.0169 1.98148 9.44907 7.93333 10.591 17.8481L0.533531 1.72963C0.0633096 0.974074 0.611901 0 1.50383 0H24.2909Z" fill="white"/>
<path d="M24.9477 40C35.2254 38.0185 39.7932 32.0667 38.6513 22.1519L48.705 38.2704C49.1753 39.0259 48.6304 40 47.7347 40H24.9477Z" fill="white"/>
</g>
<path d="M90.48 35H84.32L77.92 24.28H77.8L71.48 35H65.72L74.76 20.68L66.12 7.08H72.28L78.2 17H78.32L84.32 7.08H90.08L81.36 20.68L90.48 35ZM101.869 35.48C100.322 35.48 98.9354 35.2267 97.7088 34.72C96.5088 34.1867 95.4821 33.4533 94.6288 32.52C93.8021 31.56 93.1621 30.4133 92.7088 29.08C92.2554 27.72 92.0288 26.2 92.0288 24.52C92.0288 22.8667 92.2421 21.3733 92.6688 20.04C93.1221 18.7067 93.7621 17.5733 94.5888 16.64C95.4154 15.68 96.4288 14.9467 97.6288 14.44C98.8288 13.9067 100.189 13.64 101.709 13.64C103.335 13.64 104.749 13.92 105.949 14.48C107.149 15.04 108.135 15.8 108.909 16.76C109.682 17.72 110.255 18.84 110.629 20.12C111.029 21.3733 111.229 22.72 111.229 24.16V25.84H97.3488V26.36C97.3488 27.88 97.7754 29.1067 98.6288 30.04C99.4821 30.9467 100.749 31.4 102.429 31.4C103.709 31.4 104.749 31.1333 105.549 30.6C106.375 30.0667 107.109 29.3867 107.749 28.56L110.509 31.64C109.655 32.84 108.482 33.7867 106.989 34.48C105.522 35.1467 103.815 35.48 101.869 35.48ZM101.789 17.48C100.429 17.48 99.3488 17.9333 98.5488 18.84C97.7488 19.7467 97.3488 20.92 97.3488 22.36V22.68H105.909V22.32C105.909 20.88 105.549 19.72 104.829 18.84C104.135 17.9333 103.122 17.48 101.789 17.48ZM115.733 35V14.12H120.853V18.44H121.053C121.187 17.88 121.387 17.3467 121.653 16.84C121.947 16.3067 122.32 15.84 122.773 15.44C123.227 15.04 123.76 14.72 124.373 14.48C125.013 14.24 125.747 14.12 126.573 14.12H127.693V18.96H126.093C124.36 18.96 123.053 19.2133 122.173 19.72C121.293 20.2267 120.853 21.0533 120.853 22.2V35H115.733ZM139.521 35.48C138.028 35.48 136.681 35.2267 135.481 34.72C134.308 34.2133 133.295 33.48 132.441 32.52C131.615 31.56 130.975 30.4133 130.521 29.08C130.068 27.72 129.841 26.2 129.841 24.52C129.841 22.84 130.068 21.3333 130.521 20C130.975 18.6667 131.615 17.5333 132.441 16.6C133.295 15.64 134.308 14.9067 135.481 14.4C136.681 13.8933 138.028 13.64 139.521 13.64C141.015 13.64 142.361 13.8933 143.561 14.4C144.761 14.9067 145.775 15.64 146.601 16.6C147.455 17.5333 148.108 18.6667 148.561 20C149.015 21.3333 149.241 22.84 149.241 24.52C149.241 26.2 149.015 27.72 148.561 29.08C148.108 30.4133 147.455 31.56 146.601 32.52C145.775 33.48 144.761 34.2133 143.561 34.72C142.361 35.2267 141.015 35.48 139.521 35.48ZM139.521 31.36C140.881 31.36 141.948 30.9467 142.721 30.12C143.495 29.2933 143.881 28.08 143.881 26.48V22.6C143.881 21.0267 143.495 19.8267 142.721 19C141.948 18.1733 140.881 17.76 139.521 17.76C138.188 17.76 137.135 18.1733 136.361 19C135.588 19.8267 135.201 21.0267 135.201 22.6V26.48C135.201 28.08 135.588 29.2933 136.361 30.12C137.135 30.9467 138.188 31.36 139.521 31.36ZM153.78 35V14.12H158.9V17.6H159.1C159.527 16.48 160.194 15.5467 161.1 14.8C162.034 14.0267 163.314 13.64 164.94 13.64C167.1 13.64 168.754 14.3467 169.9 15.76C171.047 17.1733 171.62 19.1867 171.62 21.8V35H166.5V22.32C166.5 20.8267 166.234 19.7067 165.7 18.96C165.167 18.2133 164.287 17.84 163.06 17.84C162.527 17.84 162.007 17.92 161.5 18.08C161.02 18.2133 160.58 18.4267 160.18 18.72C159.807 18.9867 159.5 19.3333 159.26 19.76C159.02 20.16 158.9 20.64 158.9 21.2V35H153.78Z" fill="white"/>
<defs>
<clipPath id="clip0_271_102">
<rect width="49" height="40" fill="white"/>
</clipPath>
</defs>
</svg>
